<?xml version="1.0" standalone="no"?>
<!DOCTYPE svg PUBLIC "-//W3C//DTD SVG 20010904//EN"
 "http://www.w3.org/TR/2001/REC-SVG-20010904/DTD/svg10.dtd">
<svg version="1.0" xmlns="http://www.w3.org/2000/svg"
 width="494.000000pt" height="400.000000pt" viewBox="0 0 494.000000 400.000000"
 preserveAspectRatio="xMidYMid meet">

<g transform="translate(0.000000,400.000000) scale(0.100000,-0.100000)"
fill="#000000" stroke="none">
<path d="M1006 3604 c-193 -47 -382 -230 -443 -429 -17 -57 -18 -124 -18
-1210 0 -1088 1 -1153 18 -1210 62 -200 205 -353 399 -423 l73 -27 1545 -3
c1125 -2 1564 0 1614 9 165 27 350 163 429 315 77 148 72 64 72 1339 l0 1140
-22 70 c-67 210 -254 389 -450 430 -101 22 -3128 20 -3217 -1z m3134 -403 c14
-4 25 -12 25 -18 0 -19 -1303 -992 -1375 -1027 -60 -29 -73 -31 -171 -31 -100
0 -108 2 -175 35 -40 20 -337 236 -714 519 -355 266 -651 489 -659 496 -12 12
-9 15 20 23 39 12 3009 14 3049 3z m-2564 -929 c458 -342 622 -460 687 -492
218 -105 496 -105 714 0 65 32 227 148 686 493 331 249 607 456 614 460 11 7
13 -153 11 -930 l-3 -938 -22 -40 c-27 -50 -58 -80 -105 -100 -33 -13 -206
-15 -1538 -15 -1332 0 -1505 2 -1538 15 -47 20 -78 50 -105 100 l-22 40 -3
939 c-2 760 0 937 10 929 7 -5 284 -213 614 -461z"/>
</g>
</svg>
